<svg xmlns="http://www.w3.org/2000/svg" width="380" height="380" viewBox="0 0 380 380" version="1.1"><path d="M 164 0.995 C 164 1.831, 142.339 44.099, 114.031 98.500 C 100.468 124.566, 53.491 215.403, 53.167 216.190 C 52.983 216.636, 67.833 217, 86.167 217 L 119.500 216.999 141.882 174.977 C 154.193 151.864, 164.608 132.742, 165.027 132.483 C 165.446 132.224, 175.913 151.135, 188.287 174.506 L 210.786 217 185.893 217 C 172.202 217, 161 217.267, 161 217.594 C 161 217.921, 164.996 225.908, 169.881 235.344 C 174.766 244.780, 189.220 272.975, 202.002 298 C 214.785 323.025, 228.733 350.250, 232.999 358.500 C 237.265 366.750, 241.530 375.026, 242.476 376.892 L 244.198 380.283 252.412 364.392 C 256.929 355.651, 272.017 326, 285.941 298.500 C 299.864 271, 314.799 241.689, 319.128 233.364 C 323.458 225.040, 327 217.960, 327 217.632 C 327 217.303, 315.705 216.914, 301.899 216.767 L 276.799 216.500 251.355 167 C 237.362 139.775, 215.071 96.350, 201.821 70.500 C 188.570 44.650, 174.978 18.218, 171.615 11.763 C 166.070 1.119, 164 -1.808, 164 0.995 M 212 217.565 C 212 218.264, 226.143 246.425, 235.779 264.911 L 244.333 281.322 260.112 249.911 C 268.791 232.635, 275.916 218.151, 275.946 217.725 C 275.976 217.299, 261.600 216.985, 244 217.028 C 226.400 217.070, 212 217.312, 212 217.565" stroke="none" fill="#a9a9a9" fill-rule="evenodd"/></svg>